<svg width="158" height="168" viewBox="0 0 158 168" fill="none" xmlns="http://www.w3.org/2000/svg">
<path d="M79.5 32L120.636 55.75V103.25L79.5 127L38.3638 103.25V55.75L79.5 32Z" fill="#386ED7" fill-opacity="0.2"/>
<g filter="url(#filter0_di_5_19)">
<path d="M79 39L114.507 59.5V100.5L79 121L43.493 100.5V59.5L79 39Z" fill="url(#paint0_radial_5_19)"/>
</g>
<path d="M73.7001 67.4C73.7001 65.7291 74.3638 64.1267 75.5453 62.9452C76.7268 61.7637 78.3292 61.1 80.0001 61.1C81.6709 61.1 83.2734 61.7637 84.4548 62.9452C85.6363 64.1267 86.3001 65.7291 86.3001 67.4V80C86.3001 81.6708 85.6363 83.2733 84.4548 84.4548C83.2734 85.6362 81.6709 86.3 80.0001 86.3C78.3292 86.3 76.7268 85.6362 75.5453 84.4548C74.3638 83.2733 73.7001 81.6708 73.7001 80V67.4Z" fill="white"/>
<path d="M70.55 79.2503C70.55 78.8326 70.3841 78.432 70.0887 78.1366C69.7933 77.8412 69.3927 77.6753 68.975 77.6753C68.5573 77.6753 68.1567 77.8412 67.8613 78.1366C67.566 78.432 67.4 78.8326 67.4 79.2503V80C67.4 86.426 72.209 91.7285 78.425 92.5034V95.75H75.275C74.8573 95.75 74.4567 95.9159 74.1613 96.2113C73.866 96.5067 73.7 96.9073 73.7 97.325C73.7 97.7427 73.866 98.1433 74.1613 98.4387C74.4567 98.7341 74.8573 98.9 75.275 98.9H84.725C85.1427 98.9 85.5433 98.7341 85.8387 98.4387C86.1341 98.1433 86.3 97.7427 86.3 97.325C86.3 96.9073 86.1341 96.5067 85.8387 96.2113C85.5433 95.9159 85.1427 95.75 84.725 95.75H81.575V92.5034C84.6201 92.1193 87.4203 90.6371 89.4502 88.335C91.4801 86.033 92.6001 83.0692 92.6 80V79.2503C92.6 78.8326 92.4341 78.432 92.1387 78.1366C91.8433 77.8412 91.4427 77.6753 91.025 77.6753C90.6073 77.6753 90.2067 77.8412 89.9113 78.1366C89.616 78.432 89.45 78.8326 89.45 79.2503V80C89.45 82.5063 88.4544 84.9099 86.6822 86.6822C84.91 88.4544 82.5063 89.45 80 89.45C77.4937 89.45 75.0901 88.4544 73.3179 86.6822C71.5456 84.9099 70.55 82.5063 70.55 80V79.2503Z" fill="white"/>
<rect x="62.8321" y="93.0119" width="40.5505" height="5" rx="2" transform="rotate(-45 62.8321 93.0119)" fill="white" stroke="#5096F9" stroke-width="2"/>
<defs>
<filter id="filter0_di_5_19" x="0.49292" y="0" width="157.014" height="168" filterUnits="userSpaceOnUse" color-interpolation-filters="sRGB">
<feFlood flood-opacity="0" result="BackgroundImageFix"/>
<feColorMatrix in="SourceAlpha" type="matrix" values="0 0 0 0 0 0 0 0 0 0 0 0 0 0 0 0 0 0 127 0" result="hardAlpha"/>
<feOffset dy="4"/>
<feGaussianBlur stdDeviation="21.5"/>
<feComposite in2="hardAlpha" operator="out"/>
<feColorMatrix type="matrix" values="0 0 0 0 0.270588 0 0 0 0 0.780392 0 0 0 0 1 0 0 0 0.55 0"/>
<feBlend mode="normal" in2="BackgroundImageFix" result="effect1_dropShadow_5_19"/>
<feBlend mode="normal" in="SourceGraphic" in2="effect1_dropShadow_5_19" result="shape"/>
<feColorMatrix in="SourceAlpha" type="matrix" values="0 0 0 0 0 0 0 0 0 0 0 0 0 0 0 0 0 0 127 0" result="hardAlpha"/>
<feOffset/>
<feGaussianBlur stdDeviation="14"/>
<feComposite in2="hardAlpha" operator="arithmetic" k2="-1" k3="1"/>
<feColorMatrix type="matrix" values="0 0 0 0 0.270833 0 0 0 0 0.78125 0 0 0 0 1 0 0 0 1 0"/>
<feBlend mode="normal" in2="shape" result="effect2_innerShadow_5_19"/>
</filter>
<radialGradient id="paint0_radial_5_19" cx="0" cy="0" r="1" gradientUnits="userSpaceOnUse" gradientTransform="translate(79 80) rotate(90) scale(41)">
<stop stop-color="#5095F9"/>
<stop offset="1" stop-color="#5095F9"/>
</radialGradient>
</defs>
</svg>
